<svg width="191" height="191" viewBox="0 0 191 191" fill="none" xmlns="http://www.w3.org/2000/svg">
<g clip-path="url(#clip0)">
<path d="M121.539 167.872L121.315 167.983L121.271 168.229L118.886 181.345L116.597 190.5L74.4029 190.5L72.1141 181.345L69.7295 168.229L69.6548 167.819L69.2375 167.819C66.991 167.819 64.7151 166.692 62.2986 165.484L62.0391 165.354L61.7977 165.515L51.0539 172.678L51.0472 172.682L51.0406 172.687L43.0291 178.41L12.5906 147.971L18.3131 139.96L18.3178 139.953L18.3223 139.946L25.4848 129.202L25.6457 128.961L25.516 128.702C24.9472 127.564 24.66 126.422 24.3601 125.223L24.3551 125.203C24.0596 124.021 23.7499 122.782 23.1285 121.539L23.0167 121.315L22.7707 121.271L9.65541 118.886L0.50001 116.597L0.500007 74.403L9.6554 72.1142L22.7707 69.7296L23.0167 69.6849L23.1285 69.4612C23.7499 68.2183 24.0596 66.9795 24.3551 65.7977L24.3601 65.7777C24.66 64.578 24.9472 63.4363 25.516 62.2987L25.6457 62.0392L25.4848 61.7978L18.3223 51.054L18.3178 51.0473L18.3131 51.0408L12.5905 43.0292L43.0291 12.5907L51.0406 18.3133L51.0472 18.3179L51.0539 18.3224L61.7977 25.4849L62.0391 25.6459L62.2986 25.5161C63.4361 24.9473 64.5779 24.6601 65.7775 24.3602L65.7977 24.3552C66.9795 24.0597 68.2182 23.7501 69.4611 23.1286L69.6847 23.0168L69.7294 22.7708L72.114 9.65556L74.4029 0.500132L116.597 0.500129L118.886 9.65555L121.271 22.7708L121.315 23.0168L121.539 23.1286C122.365 23.5418 123.222 23.8279 124.037 24.1001C124.426 24.2299 124.806 24.3566 125.168 24.4925C126.32 24.9245 127.444 25.4889 128.571 26.6162L128.861 26.906L129.202 26.6787L139.946 19.5162L139.953 19.5117L139.959 19.507L147.971 13.7844L177.245 43.0586L172.668 51.0684L165.515 61.7978L165.354 62.0392L165.484 62.2987C166.053 63.4362 166.34 64.578 166.64 65.7776L166.645 65.7978C166.94 66.9796 167.25 68.2183 167.872 69.4612L167.983 69.6848L168.229 69.7296L181.345 72.1142L190.5 74.403L190.5 116.597L181.345 118.886L168.229 121.271L167.983 121.315L167.872 121.539C167.25 122.782 166.94 124.021 166.645 125.202L166.64 125.223C166.34 126.422 166.053 127.564 165.484 128.702L165.354 128.961L165.515 129.202L172.678 139.946L172.682 139.953L172.687 139.959L178.409 147.971L147.971 178.41L139.959 172.687L139.953 172.682L139.946 172.678L129.202 165.515L128.961 165.354L128.701 165.484C127.564 166.053 126.422 166.34 125.222 166.64L125.202 166.645C124.021 166.941 122.782 167.25 121.539 167.872ZM83.0701 179.15L83.143 179.563L83.5625 179.563L107.438 179.563L107.857 179.563L107.93 179.15L111.452 159.191C117.283 157.981 123.104 155.647 128.915 152.195L145.367 162.771L145.706 162.989L145.991 162.704L162.704 145.991L162.989 145.706L162.771 145.367L152.194 128.915C155.647 123.104 157.981 117.283 159.191 111.452L179.149 107.93L179.563 107.857L179.563 107.438L179.563 83.5626L179.563 83.1666L179.177 83.0759L159.195 78.3742C157.987 72.5366 155.65 66.7086 152.194 60.8911L162.771 44.4393L162.989 44.1003L162.704 43.8153L145.991 27.1028L145.692 26.8033L145.347 27.0495L128.9 38.7969C123.094 35.3496 117.278 33.0177 111.452 31.8094L107.93 11.8507L107.857 11.4376L107.438 11.4376L83.5625 11.4376L83.143 11.4376L83.0701 11.8507L79.548 31.8094C73.717 33.0188 67.8957 35.3536 62.0847 38.8057L45.6329 28.2295L45.2939 28.0116L45.009 28.2966L28.2965 45.0091L28.0115 45.294L28.2294 45.633L38.8056 62.0849C35.3535 67.8958 33.0187 73.7172 31.8092 79.5481L11.8506 83.0702L11.4375 83.1432L11.4375 83.5626L11.4375 107.438L11.4375 107.857L11.8506 107.93L31.8092 111.452C33.0186 117.283 35.3535 123.104 38.8056 128.915L28.2294 145.367L28.0115 145.706L28.2965 145.991L45.009 162.704L45.2939 162.989L45.6329 162.771L62.0848 152.195C67.8957 155.647 73.717 157.982 79.548 159.191L83.0701 179.15Z" fill="white" stroke="white"/>
<path d="M95.5 137.281C118.181 137.281 137.281 118.181 137.281 95.5C137.281 72.8187 118.181 53.7188 95.5 53.7188C72.8187 53.7188 53.7187 72.8188 53.7187 95.5C53.7187 118.181 72.8187 137.281 95.5 137.281ZM95.5 65.6563C112.212 65.6563 125.344 78.7875 125.344 95.5C125.344 112.213 112.212 125.344 95.5 125.344C78.7875 125.344 65.6562 112.213 65.6562 95.5C65.6562 78.7875 78.7875 65.6563 95.5 65.6563Z" fill="white"/>
</g>
<defs>
<clipPath id="clip0">
<rect width="191" height="191" fill="white" transform="translate(191 191) rotate(180)"/>
</clipPath>
</defs>
</svg>
